# Blender v2.80 (sub 75) OBJ File: ''
# www.blender.org
mtllib sock-pinned.mtl
o sock
v -0.017997 -2.096350 2.919114
v 0.035395 -1.673347 2.915503
v -0.017382 -1.323779 2.619450
v -0.192751 -1.885459 2.483397
v 0.444082 -1.323779 2.617450
v 0.393457 -1.682348 2.907502
v 0.444389 -2.084352 2.918115
v 0.623638 -1.906459 2.486397
v 0.214219 1.998361 0.302640
v 0.213811 2.007412 0.873007
v 0.359214 2.056465 0.875698
v 0.472716 1.998134 0.303536
v 0.065949 2.059465 0.876698
v -0.044686 1.971133 0.300536
v 0.361674 2.050465 -0.273626
v 0.214119 2.004302 -0.274285
v 0.065334 2.044465 -0.273626
v 0.579946 2.486902 1.120422
v 0.564616 1.966964 1.083516
v 0.784217 1.929669 0.303536
v 0.813811 2.464973 0.297536
v 0.783809 3.000000 0.299536
v 0.562770 3.064856 1.089517
v 0.562464 1.949817 -0.491444
v 0.580254 2.457686 -0.526351
v 0.565231 3.045444 -0.490442
v -0.154476 2.454686 -0.524351
v -0.136993 1.955817 -0.483444
v -0.356595 1.944669 0.302536
v -0.386189 2.440973 0.297536
v -0.358228 3.009000 0.302536
v -0.136686 3.042444 -0.484443
v -0.136686 1.951964 1.084516
v -0.153245 2.492154 1.124422
v -0.136685 3.069365 1.087516
v -0.016459 1.937817 -0.448464
v -0.195608 1.953669 0.298536
v 0.622822 1.938669 0.299536
v 0.442852 1.949817 -0.450464
v -0.016459 1.527000 -0.449464
v -0.193976 1.509000 0.296536
v 0.443775 1.524000 -0.452464
v 0.622006 1.515000 0.303536
v -0.017074 1.942964 1.052536
v 0.444697 1.951964 1.054536
v 0.445312 1.521000 1.052536
v -0.018304 1.524000 1.045536
v -0.016152 3.036444 -0.449463
v -0.193159 3.015000 0.303536
v 0.443467 3.024444 -0.452464
v 0.623639 3.015000 0.302536
v -0.017688 3.084620 1.048536
v 0.445003 3.088601 1.053537
v -0.017997 -2.456141 2.350343
v -0.196425 -1.664976 1.930536
v -0.017689 -2.355405 1.768953
v -0.016459 -0.965546 2.092120
v 0.622822 -1.667976 1.932537
v 0.443774 -2.468139 2.349344
v 0.442852 -2.343406 1.764953
v 0.443159 -0.974547 2.092120
v -0.193159 -1.365761 0.817347
v -0.015844 -2.097194 0.646504
v -0.016152 -2.219945 1.245994
v -0.193159 -1.509901 1.419869
v -0.017382 -0.769857 1.594743
v -0.042387 -0.460123 1.058102
v 0.621189 -1.350761 0.817347
v 0.622822 -1.509901 1.423869
v 0.445312 -2.225945 1.249995
v 0.444697 -2.079194 0.641504
v 0.469087 -0.442123 1.060102
v 0.444389 -0.784857 1.593743
v -0.196425 0.984786 0.285015
v -0.193567 0.406145 0.252454
v -0.015844 0.318603 0.988093
v -0.016152 0.967278 1.034943
v -0.193567 -0.260590 0.153530
v 0.619965 0.978786 0.286015
v 0.443160 0.985278 1.033943
v 0.442852 0.342603 0.992093
v 0.622414 0.424145 0.248454
v 0.622414 -0.275590 0.151530
v 0.622822 -1.154085 -0.030075
v 0.445312 -1.874365 -0.211159
v -0.193976 -1.163085 -0.029075
v -0.015844 -1.871365 -0.208159
v -0.017382 1.020295 -0.458912
v 0.035087 -2.427958 2.732408
v 0.393150 -2.421958 2.730407
v -0.017996 0.493687 -0.493186
v -0.015537 -0.121015 -0.578820
v 0.443160 1.011295 -0.456912
v 0.444082 0.490687 -0.493186
v 0.444697 -0.124015 -0.581820
v 0.442852 -0.970001 -0.764353
v 0.394380 -1.576127 -0.736468
v -0.017381 -0.985001 -0.764353
v 0.032936 -1.573127 -0.732468
v 0.213196 -1.156758 2.645597
v 0.213811 -1.630454 2.983050
v 0.212274 -2.114239 2.985487
v 0.214119 -0.895711 2.181111
v 0.212889 -2.526538 2.783915
v 0.212582 -0.336286 1.182877
v 0.213811 -0.635247 1.636496
v 0.213811 0.301422 1.138217
v 0.214733 -2.576850 2.342098
v 0.213196 -2.522763 1.733974
v 0.212274 -2.389859 1.218844
v 0.212582 -2.223099 0.611811
v 0.212274 -1.965685 -0.227761
v 0.214426 -1.652620 -0.808859
v 0.213504 -0.945893 -0.870265
v 0.213197 -0.086531 -0.728523
v 0.213197 0.543868 -0.624225
v 0.213504 1.524000 -0.581957
v 0.215041 2.003000 -0.588957
v 0.214734 1.007967 -0.598024
v 0.213504 2.015000 1.212294
v 0.212274 1.503000 1.203114
v 0.213504 0.973606 1.190140
v 0.213811 2.538267 1.434156
v 0.213196 2.021000 1.374961
v 0.213504 3.129071 1.370961
v 0.212581 3.114071 1.205294
v 0.212582 2.002429 1.064419
v 0.213197 2.021000 -0.756624
v 0.213504 2.518922 -0.804819
v 0.214734 3.090479 -0.750624
v 0.212274 3.087479 -0.586957
v 0.212889 1.994281 -0.466347
vt 0.122768 0.033877
vt 0.166976 0.027295
vt 0.208770 0.057599
vt 0.146460 0.080975
vt 0.206862 0.942811
vt 0.164633 0.972422
vt 0.122775 0.966484
vt 0.142980 0.920115
vt 0.918604 0.611578
vt 0.905475 0.681868
vt 0.886784 0.678672
vt 0.886784 0.605866
vt 0.924430 0.685863
vt 0.950701 0.617016
vt 0.912372 0.537197
vt 0.931221 0.540338
vt 0.949940 0.543852
vt 0.768919 0.686785
vt 0.706541 0.676803
vt 0.706580 0.585057
vt 0.769672 0.585713
vt 0.831397 0.586885
vt 0.839710 0.683655
vt 0.709790 0.493542
vt 0.769174 0.485412
vt 0.840178 0.490959
vt 0.786814 0.138004
vt 0.845967 0.146720
vt 0.846696 0.238833
vt 0.787639 0.238419
vt 0.722422 0.239038
vt 0.715524 0.143533
vt 0.846988 0.329861
vt 0.783020 0.339365
vt 0.712859 0.334464
vt 0.860778 0.142607
vt 0.867502 0.238202
vt 0.685769 0.584182
vt 0.695332 0.489584
vt 0.633362 0.467702
vt 0.581188 0.466573
vt 0.584266 0.368154
vt 0.640492 0.371637
vt 0.580556 0.535458
vt 0.634720 0.534709
vt 0.637543 0.631077
vt 0.584324 0.634846
vt 0.861423 0.333988
vt 0.691894 0.681085
vt 0.646530 0.727841
vt 0.592680 0.731633
vt 0.594096 0.271021
vt 0.646795 0.274366
vt 0.717695 0.956674
vt 0.647589 0.934988
vt 0.650030 0.809122
vt 0.744520 0.828119
vt 0.584384 0.810408
vt 0.585945 0.934157
vt 0.514981 0.953274
vt 0.489284 0.827839
vt 0.839238 0.841957
vt 0.791347 0.962689
vt 0.442609 0.962953
vt 0.393678 0.841558
vt 0.701087 0.238887
vt 0.700481 0.141511
vt 0.855716 0.489634
vt 0.852228 0.587396
vt 0.697690 0.335689
vt 0.854860 0.685431
vt 0.081799 0.092661
vt 0.174130 0.141218
vt 0.089174 0.161715
vt 0.257621 0.114047
vt 0.172162 0.860167
vt 0.079645 0.908642
vt 0.089039 0.839488
vt 0.254669 0.887077
vt 0.216833 0.275403
vt 0.123374 0.299988
vt 0.105491 0.226247
vt 0.195846 0.201652
vt 0.289842 0.172112
vt 0.337067 0.240851
vt 0.216982 0.725324
vt 0.194217 0.799834
vt 0.103243 0.775677
vt 0.123286 0.700254
vt 0.338069 0.760773
vt 0.286476 0.828923
vt 0.517172 0.364511
vt 0.441895 0.361725
vt 0.440110 0.261841
vt 0.523877 0.266049
vt 0.354846 0.365255
vt 0.515694 0.637596
vt 0.525290 0.735524
vt 0.441916 0.739949
vt 0.443461 0.639108
vt 0.351944 0.635988
vt 0.240252 0.621117
vt 0.154452 0.598619
vt 0.240380 0.379679
vt 0.156045 0.400251
vt 0.514384 0.465144
vt 0.085518 0.050120
vt 0.085346 0.950437
vt 0.443534 0.464421
vt 0.361566 0.465051
vt 0.513015 0.536826
vt 0.442932 0.537220
vt 0.360821 0.535908
vt 0.254488 0.531251
vt 0.187251 0.539911
vt 0.253164 0.468508
vt 0.188315 0.459279
vt 0.235856 0.960931
vt 0.173469 0.995000
vt 0.175215 0.005000
vt 0.238068 0.039563
vt 0.114251 0.005872
vt 0.113441 0.994047
vt 0.279398 0.091465
vt 0.276800 0.909354
vt 0.064207 0.964636
vt 0.064438 0.036122
vt 0.362117 0.792920
vt 0.317952 0.845943
vt 0.320304 0.155261
vt 0.363362 0.209339
vt 0.441518 0.775670
vt 0.442600 0.226375
vt 0.049299 0.090644
vt 0.049299 0.911448
vt 0.054229 0.167811
vt 0.052412 0.834440
vt 0.067847 0.768067
vt 0.070295 0.233370
vt 0.089935 0.691380
vt 0.092256 0.309418
vt 0.125610 0.586820
vt 0.127884 0.411868
vt 0.171343 0.521260
vt 0.171928 0.477959
vt 0.253270 0.499992
vt 0.363023 0.500435
vt 0.448154 0.500819
vt 0.580098 0.501106
vt 0.641397 0.501461
vt 0.511633 0.501113
vt 0.658525 0.239843
vt 0.594188 0.235719
vt 0.657013 0.762212
vt 0.593016 0.766469
vt 0.526841 0.770544
vt 0.527763 0.231103
vt 0.777304 0.405764
vt 0.854343 0.392076
vt 0.691648 0.390189
vt 0.774325 0.753898
vt 0.697264 0.739274
vt 0.860653 0.739756
vt 0.873181 0.850025
vt 0.817686 0.978082
vt 0.416105 0.978082
vt 0.360069 0.850261
vt 0.867681 0.390269
vt 0.677780 0.735957
vt 0.675974 0.385732
vt 0.875847 0.732464
vt 0.702806 0.434031
vt 0.776990 0.421903
vt 0.859593 0.436956
vt 0.778469 0.073818
vt 0.853099 0.085877
vt 0.695371 0.088842
vt 0.617249 0.800846
vt 0.616849 0.937832
vt 0.872556 0.088912
vt 0.679660 0.440173
vt 0.678038 0.091602
vt 0.876822 0.442969
vt 0.901247 0.705153
vt 0.935537 0.516951
vn -0.9030 0.1560 0.4002
vn 0.8996 0.1609 0.4061
vn -0.1191 0.9904 -0.0703
vn 0.0603 0.9941 -0.0902
vn -0.1124 0.9918 0.0609
vn 0.0314 0.9969 0.0717
vn 0.9606 -0.0489 0.2736
vn 0.9620 0.0478 0.2688
vn 0.9611 -0.0543 -0.2707
vn 0.9621 0.0476 -0.2684
vn -0.9609 -0.0579 -0.2706
vn -0.9618 0.0485 -0.2695
vn -0.9608 -0.0520 0.2723
vn -0.9623 0.0449 0.2682
vn -0.0314 -0.9995 -0.0051
vn -0.0335 -0.9994 -0.0115
vn -0.9726 -0.0010 -0.2324
vn 0.9729 -0.0004 -0.2314
vn -0.0003 -1.0000 -0.0021
vn 0.0169 -0.9992 0.0373
vn 0.9733 0.0003 0.2296
vn -0.9733 -0.0028 0.2294
vn 0.9675 0.1278 0.2184
vn -0.9670 0.1327 0.2175
vn 0.9661 0.1274 -0.2244
vn -0.9652 0.1310 -0.2262
vn -0.0043 0.9994 0.0345
vn -0.0155 0.9991 0.0395
vn -0.0828 0.9946 -0.0630
vn 0.1439 0.9883 -0.0515
vn -0.9647 -0.2542 -0.0691
vn -0.9619 0.2401 0.1311
vn 0.9622 -0.2591 -0.0842
vn 0.9618 0.2412 0.1298
vn -0.9726 -0.2270 -0.0506
vn -0.9810 0.1719 0.0900
vn 0.9728 -0.2243 -0.0583
vn 0.9800 0.1739 0.0964
vn -0.9723 -0.0176 0.2331
vn -0.9799 0.0140 0.1989
vn 0.9727 -0.0136 0.2317
vn 0.9798 0.0134 0.1994
vn 0.9931 0.0609 0.1002
vn 0.9730 -0.2250 -0.0518
vn -0.9932 0.0596 0.0999
vn -0.9724 -0.2263 -0.0565
vn -0.9726 0.0079 -0.2325
vn 0.9731 -0.0116 0.2299
vn -0.9332 -0.3037 0.1921
vn 0.9257 -0.3141 0.2109
vn -0.9707 -0.2300 -0.0692
vn -0.9720 0.2226 0.0752
vn 0.9703 -0.2344 -0.0608
vn 0.9707 0.2266 0.0794
vn -0.9730 0.0120 -0.2306
vn -0.9732 0.0310 -0.2281
vn 0.9727 0.0189 -0.2314
vn 0.9727 0.0329 -0.2299
vn 0.9729 0.0470 -0.2264
vn 0.9636 -0.1377 -0.2294
vn -0.9732 0.0481 -0.2248
vn -0.9632 -0.1440 -0.2268
vn -0.9729 -0.0045 0.2310
vn 0.9731 0.0024 -0.2304
vn 0.4584 0.5173 0.7227
vn -0.4384 0.5301 0.7258
vn -0.3127 0.0253 0.9495
vn 0.3293 0.0323 0.9437
vn -0.4939 0.7380 0.4599
vn 0.5073 0.7335 0.4523
vn 0.3826 -0.4459 0.8092
vn -0.3642 -0.4515 0.8146
vn 0.5299 0.7052 0.4710
vn -0.5345 0.7136 0.4528
vn 0.4909 0.0774 0.8678
vn -0.5050 0.0795 0.8594
vn 0.4952 0.7975 0.3446
vn -0.4774 -0.8714 0.1127
vn 0.4698 -0.8728 0.1323
vn -0.5319 -0.8398 -0.1088
vn 0.5351 -0.8353 -0.1264
vn 0.6014 -0.7766 -0.1879
vn -0.5973 -0.7764 -0.2011
vn 0.5586 -0.8031 -0.2073
vn -0.5516 -0.8111 -0.1949
vn 0.4572 -0.8580 -0.2343
vn -0.4447 -0.8613 -0.2456
vn 0.4176 -0.7874 -0.4534
vn -0.4361 -0.7788 -0.4508
vn 0.4064 -0.0766 -0.9105
vn -0.4097 -0.0817 -0.9086
vn -0.4993 0.1621 -0.8511
vn 0.4909 0.1623 -0.8560
vn -0.5337 0.1265 -0.8362
vn 0.5292 0.1302 -0.8385
vn 0.5045 -0.0051 -0.8634
vn -0.5087 -0.0049 -0.8610
vn -0.5063 0.0536 -0.8607
vn 0.5079 0.0175 -0.8612
vn 0.5133 0.0540 -0.8565
vn -0.5061 0.0214 -0.8622
vn -0.5659 -0.0128 0.8244
vn 0.5526 -0.0102 0.8334
vn 0.5541 -0.0592 0.8303
vn -0.5624 -0.0197 0.8266
vn -0.5535 -0.0624 0.8305
vn 0.5535 -0.0252 0.8324
vn -0.6320 -0.0818 0.7706
vn -0.6420 0.0743 0.7631
vn 0.6356 -0.0809 0.7677
vn 0.6447 0.0709 0.7611
vn 0.6740 0.1327 -0.7268
vn -0.6677 0.1355 -0.7320
vn 0.1217 -0.9811 0.1506
vn -0.0774 -0.9847 0.1562
vn -0.1067 0.9925 -0.0603
vn 0.1285 0.9912 -0.0327
vn 0.5939 -0.0769 -0.8009
vn 0.6056 0.0688 -0.7928
vn -0.5993 -0.0815 -0.7964
vn -0.6107 0.0740 -0.7884
vn -0.6452 0.1343 0.7521
vn 0.6540 0.1317 0.7450
vn 0.0667 -0.9747 -0.2134
vn -0.1094 -0.9831 -0.1465
vn -0.0975 0.9899 0.1028
vn 0.0729 0.9841 0.1620
vn -0.3200 0.9472 0.0226
vn 0.3325 0.9427 0.0267
vn -0.2980 0.9534 -0.0478
vn 0.2600 0.9642 -0.0520
vn -0.4608 0.8128 0.3564
usemtl sockmat
s off
f 1/1/1 2/2/1 3/3/1 4/4/1
f 5/5/2 6/6/2 7/7/2 8/8/2
f 9/9/3 10/10/3 11/11/3 12/12/3
f 13/13/4 10/10/4 9/9/4 14/14/4
f 15/15/5 16/16/5 9/9/5 12/12/5
f 9/9/6 16/16/6 17/17/6 14/14/6
f 18/18/7 19/19/7 20/20/7 21/21/7
f 22/22/8 23/23/8 18/18/8 21/21/8
f 20/20/9 24/24/9 25/25/9 21/21/9
f 25/25/10 26/26/10 22/22/10 21/21/10
f 27/27/11 28/28/11 29/29/11 30/30/11
f 31/31/12 32/32/12 27/27/12 30/30/12
f 29/29/13 33/33/13 34/34/13 30/30/13
f 34/34/14 35/35/14 31/31/14 30/30/14
f 28/28/15 36/36/15 37/37/15 29/29/15
f 38/38/16 39/39/16 24/24/16 20/20/16
f 36/40/17 40/41/17 41/42/17 37/43/17
f 42/44/18 39/45/18 38/46/18 43/47/18
f 37/37/19 44/48/19 33/33/19 29/29/19
f 19/19/20 45/49/20 38/38/20 20/20/20
f 45/50/21 46/51/21 43/47/21 38/46/21
f 37/43/22 41/42/22 47/52/22 44/53/22
f 14/54/23 17/55/23 48/56/23 49/57/23
f 50/58/24 15/59/24 12/60/24 51/61/24
f 52/62/25 13/63/25 14/54/25 49/57/25
f 12/60/26 11/64/26 53/65/26 51/61/26
f 49/66/27 48/67/27 32/32/27 31/31/27
f 26/26/28 50/68/28 51/69/28 22/22/28
f 35/35/29 52/70/29 49/66/29 31/31/29
f 51/69/30 53/71/30 23/23/30 22/22/30
f 54/72/31 4/4/31 55/73/31 56/74/31
f 4/4/32 3/3/32 57/75/32 55/73/32
f 58/76/33 8/8/33 59/77/33 60/78/33
f 61/79/34 5/5/34 8/8/34 58/76/34
f 62/80/35 63/81/35 64/82/35 65/83/35
f 65/83/36 66/84/36 67/85/36 62/80/36
f 68/86/37 69/87/37 70/88/37 71/89/37
f 72/90/38 73/91/38 69/87/38 68/86/38
f 74/92/39 75/93/39 76/94/39 77/95/39
f 67/85/40 76/94/40 75/93/40 78/96/40
f 79/97/41 80/98/41 81/99/41 82/100/41
f 82/100/42 81/99/42 72/90/42 83/101/42
f 68/86/43 84/102/43 83/101/43 72/90/43
f 84/102/44 68/86/44 71/89/44 85/103/44
f 78/96/45 86/104/45 62/80/45 67/85/45
f 63/81/46 62/80/46 86/104/46 87/105/46
f 74/92/47 41/42/47 40/41/47 88/106/47
f 80/98/48 79/97/48 43/47/48 46/51/48
f 1/1/49 4/4/49 54/72/49 89/107/49
f 7/7/50 90/108/50 59/77/50 8/8/50
f 56/74/51 55/73/51 65/83/51 64/82/51
f 55/73/52 57/75/52 66/84/52 65/83/52
f 69/87/53 58/76/53 60/78/53 70/88/53
f 73/91/54 61/79/54 58/76/54 69/87/54
f 88/106/55 91/109/55 75/93/55 74/92/55
f 91/109/56 92/110/56 78/96/56 75/93/56
f 93/111/57 79/97/57 82/100/57 94/112/57
f 83/101/58 95/113/58 94/112/58 82/100/58
f 95/113/59 83/101/59 84/102/59 96/114/59
f 85/103/60 97/115/60 96/114/60 84/102/60
f 86/104/61 78/96/61 92/110/61 98/116/61
f 98/116/62 99/117/62 87/105/62 86/104/62
f 77/95/63 47/52/63 41/42/63 74/92/63
f 79/97/64 93/111/64 42/44/64 43/47/64
f 5/5/65 100/118/65 101/119/65 6/6/65
f 3/3/66 2/2/66 101/120/66 100/121/66
f 1/1/67 102/122/67 101/120/67 2/2/67
f 7/7/68 6/6/68 101/119/68 102/123/68
f 57/75/69 3/3/69 100/121/69 103/124/69
f 61/79/70 103/125/70 100/118/70 5/5/70
f 90/108/71 7/7/71 102/123/71 104/126/71
f 102/122/72 1/1/72 89/107/72 104/127/72
f 72/90/73 105/128/73 106/129/73 73/91/73
f 67/85/74 66/84/74 106/130/74 105/131/74
f 72/90/75 81/99/75 107/132/75 105/128/75
f 107/133/76 76/94/76 67/85/76 105/131/76
f 73/91/77 106/129/77 103/125/77 61/79/77
f 108/134/78 104/127/78 89/107/78 54/72/78
f 108/135/79 59/77/79 90/108/79 104/126/79
f 109/136/80 108/134/80 54/72/80 56/74/80
f 109/137/81 60/78/81 59/77/81 108/135/81
f 110/138/82 70/88/82 60/78/82 109/137/82
f 110/139/83 109/136/83 56/74/83 64/82/83
f 111/140/84 71/89/84 70/88/84 110/138/84
f 111/141/85 110/139/85 64/82/85 63/81/85
f 112/142/86 85/103/86 71/89/86 111/140/86
f 112/143/87 111/141/87 63/81/87 87/105/87
f 113/144/88 97/115/88 85/103/88 112/142/88
f 113/145/89 112/143/89 87/105/89 99/117/89
f 96/114/90 97/115/90 113/144/90 114/146/90
f 113/145/91 99/117/91 98/116/91 114/146/91
f 114/146/92 98/116/92 92/110/92 115/147/92
f 95/113/93 96/114/93 114/146/93 115/147/93
f 115/147/94 92/110/94 91/109/94 116/148/94
f 95/113/95 115/147/95 116/148/95 94/112/95
f 42/44/96 117/149/96 118/150/96 39/45/96
f 118/150/97 117/149/97 40/41/97 36/40/97
f 119/151/98 116/148/98 91/109/98 88/106/98
f 42/44/99 93/111/99 119/151/99 117/149/99
f 94/112/100 116/148/100 119/151/100 93/111/100
f 119/151/101 88/106/101 40/41/101 117/149/101
f 120/152/102 44/53/102 47/52/102 121/153/102
f 46/51/103 45/50/103 120/154/103 121/155/103
f 80/98/104 122/156/104 107/132/104 81/99/104
f 122/157/105 121/153/105 47/52/105 77/95/105
f 107/133/106 122/157/106 77/95/106 76/94/106
f 46/51/107 121/155/107 122/156/107 80/98/107
f 123/158/108 34/34/108 33/33/108 124/159/108
f 123/158/109 125/160/109 35/35/109 34/34/109
f 18/18/110 123/161/110 124/162/110 19/19/110
f 18/18/111 23/23/111 125/163/111 123/161/111
f 126/164/112 127/165/112 13/63/112 52/62/112
f 53/65/113 11/64/113 127/166/113 126/167/113
f 44/48/114 120/168/114 124/159/114 33/33/114
f 45/49/115 19/19/115 124/162/115 120/169/115
f 52/70/116 35/35/116 125/160/116 126/170/116
f 53/71/117 126/171/117 125/163/117 23/23/117
f 25/25/118 24/24/118 128/172/118 129/173/118
f 25/25/119 129/173/119 130/174/119 26/26/119
f 129/175/120 128/176/120 28/28/120 27/27/120
f 130/177/121 129/175/121 27/27/121 32/32/121
f 50/58/122 131/178/122 132/179/122 15/59/122
f 132/179/123 131/178/123 48/56/123 17/55/123
f 128/176/124 118/180/124 36/36/124 28/28/124
f 128/172/125 24/24/125 39/39/125 118/181/125
f 130/177/126 32/32/126 48/67/126 131/182/126
f 130/174/127 131/183/127 50/68/127 26/26/127
f 10/10/128 127/184/128 11/11/128
f 127/184/129 10/10/129 13/13/129
f 132/185/130 16/16/130 15/15/130
f 16/16/131 132/185/131 17/17/131
f 66/84/132 57/75/132 103/124/132 106/130/132
o Cylinder
v 0.022689 2.866936 -0.467773
v -0.209375 2.866936 -0.467773
v 0.022689 2.844632 -0.465576
v -0.209375 2.844632 -0.465576
v 0.022689 2.823185 -0.459070
v -0.209375 2.823185 -0.459070
v 0.022689 2.803420 -0.448506
v -0.209375 2.803420 -0.448506
v 0.022689 2.786096 -0.434288
v -0.209375 2.786096 -0.434288
v 0.022689 2.771878 -0.416963
v -0.209375 2.771878 -0.416963
v 0.022689 2.761313 -0.397198
v -0.209375 2.761313 -0.397198
v 0.022689 2.754807 -0.375751
v -0.209375 2.754807 -0.375751
v 0.022689 2.752610 -0.353447
v -0.209375 2.752610 -0.353447
v 0.022689 2.754807 -0.331144
v -0.209375 2.754807 -0.331144
v 0.022689 2.761313 -0.309697
v -0.209375 2.761313 -0.309697
v 0.022689 2.771878 -0.289932
v -0.209375 2.771878 -0.289932
v 0.022689 2.786096 -0.272607
v -0.209375 2.786096 -0.272607
v 0.022689 2.803420 -0.258389
v -0.209375 2.803420 -0.258389
v 0.022689 2.823185 -0.247824
v -0.209375 2.823185 -0.247824
v 0.022689 2.844632 -0.241319
v -0.209375 2.844632 -0.241319
v 0.022689 2.866936 -0.239122
v -0.209375 2.866936 -0.239122
v 0.022689 2.889240 -0.241319
v -0.209375 2.889240 -0.241319
v 0.022689 2.910686 -0.247824
v -0.209375 2.910686 -0.247824
v 0.022689 2.930452 -0.258389
v -0.209375 2.930452 -0.258389
v 0.022689 2.947776 -0.272607
v -0.209375 2.947776 -0.272607
v 0.022689 2.961994 -0.289932
v -0.209375 2.961994 -0.289932
v 0.022689 2.972559 -0.309697
v -0.209375 2.972559 -0.309697
v 0.022689 2.979065 -0.331144
v -0.209375 2.979065 -0.331144
v 0.022689 2.981261 -0.353447
v -0.209375 2.981261 -0.353447
v 0.022689 2.979065 -0.375751
v -0.209375 2.979065 -0.375751
v 0.022689 2.972559 -0.397198
v -0.209375 2.972559 -0.397198
v 0.022689 2.961994 -0.416963
v -0.209375 2.961994 -0.416963
v 0.022689 2.947776 -0.434288
v -0.209375 2.947776 -0.434288
v 0.022689 2.930452 -0.448506
v -0.209375 2.930452 -0.448506
v 0.022689 2.910686 -0.459070
v -0.209375 2.910686 -0.459070
v 0.022689 2.889240 -0.465576
v -0.209375 2.889240 -0.465576
vt 1.000000 0.500000
vt 0.968750 0.500000
vt 0.968750 1.000000
vt 1.000000 1.000000
vt 0.937500 0.500000
vt 0.937500 1.000000
vt 0.906250 0.500000
vt 0.906250 1.000000
vt 0.875000 0.500000
vt 0.875000 1.000000
vt 0.843750 0.500000
vt 0.843750 1.000000
vt 0.812500 0.500000
vt 0.812500 1.000000
vt 0.781250 0.500000
vt 0.781250 1.000000
vt 0.750000 0.500000
vt 0.750000 1.000000
vt 0.718750 0.500000
vt 0.718750 1.000000
vt 0.687500 0.500000
vt 0.687500 1.000000
vt 0.656250 0.500000
vt 0.656250 1.000000
vt 0.625000 0.500000
vt 0.625000 1.000000
vt 0.593750 0.500000
vt 0.593750 1.000000
vt 0.562500 0.500000
vt 0.562500 1.000000
vt 0.531250 0.500000
vt 0.531250 1.000000
vt 0.500000 0.500000
vt 0.500000 1.000000
vt 0.468750 0.500000
vt 0.468750 1.000000
vt 0.437500 0.500000
vt 0.437500 1.000000
vt 0.406250 0.500000
vt 0.406250 1.000000
vt 0.375000 0.500000
vt 0.375000 1.000000
vt 0.343750 0.500000
vt 0.343750 1.000000
vt 0.312500 0.500000
vt 0.312500 1.000000
vt 0.281250 0.500000
vt 0.281250 1.000000
vt 0.250000 0.500000
vt 0.250000 1.000000
vt 0.218750 0.500000
vt 0.218750 1.000000
vt 0.187500 0.500000
vt 0.187500 1.000000
vt 0.156250 0.500000
vt 0.156250 1.000000
vt 0.125000 0.500000
vt 0.125000 1.000000
vt 0.093750 0.500000
vt 0.093750 1.000000
vt 0.062500 0.500000
vt 0.062500 1.000000
vt 0.296822 0.485388
vt 0.341844 0.471731
vt 0.383337 0.449553
vt 0.419706 0.419706
vt 0.449553 0.383337
vt 0.471731 0.341844
vt 0.485388 0.296822
vt 0.490000 0.250000
vt 0.485388 0.203178
vt 0.471731 0.158156
vt 0.449553 0.116663
vt 0.419706 0.080294
vt 0.383337 0.050447
vt 0.341844 0.028269
vt 0.296822 0.014612
vt 0.250000 0.010000
vt 0.203178 0.014612
vt 0.158156 0.028269
vt 0.116663 0.050447
vt 0.080294 0.080294
vt 0.050447 0.116663
vt 0.028269 0.158156
vt 0.014611 0.203179
vt 0.010000 0.250000
vt 0.014612 0.296822
vt 0.028269 0.341844
vt 0.050447 0.383337
vt 0.080295 0.419706
vt 0.116663 0.449553
vt 0.158156 0.471731
vt 0.203179 0.485389
vt 0.250000 0.490000
vt 0.031250 0.500000
vt 0.031250 1.000000
vt 0.000000 0.500000
vt 0.000000 1.000000
vt 0.750000 0.490000
vt 0.703179 0.485389
vt 0.658156 0.471731
vt 0.616663 0.449553
vt 0.580295 0.419706
vt 0.550447 0.383337
vt 0.528269 0.341844
vt 0.514612 0.296822
vt 0.510000 0.250000
vt 0.514611 0.203179
vt 0.528269 0.158156
vt 0.550447 0.116663
vt 0.580294 0.080294
vt 0.616663 0.050447
vt 0.658156 0.028269
vt 0.703178 0.014612
vt 0.750000 0.010000
vt 0.796822 0.014612
vt 0.841844 0.028269
vt 0.883337 0.050447
vt 0.919706 0.080294
vt 0.949553 0.116663
vt 0.971731 0.158156
vt 0.985388 0.203178
vt 0.990000 0.250000
vt 0.985388 0.296822
vt 0.971731 0.341844
vt 0.949553 0.383337
vt 0.919706 0.419706
vt 0.883337 0.449553
vt 0.841844 0.471731
vt 0.796822 0.485388
vn 0.0000 -0.0980 -0.9952
vn 0.0000 -0.2903 -0.9569
vn 0.0000 -0.4714 -0.8819
vn 0.0000 -0.6344 -0.7730
vn 0.0000 -0.7730 -0.6344
vn 0.0000 -0.8819 -0.4714
vn 0.0000 -0.9569 -0.2903
vn 0.0000 -0.9952 -0.0980
vn 0.0000 -0.9952 0.0980
vn 0.0000 -0.9569 0.2903
vn 0.0000 -0.8819 0.4714
vn 0.0000 -0.7730 0.6344
vn 0.0000 -0.6344 0.7730
vn 0.0000 -0.4714 0.8819
vn 0.0000 -0.2903 0.9569
vn 0.0000 -0.0980 0.9952
vn 0.0000 0.0980 0.9952
vn 0.0000 0.2903 0.9569
vn 0.0000 0.4714 0.8819
vn 0.0000 0.6344 0.7730
vn 0.0000 0.7730 0.6344
vn 0.0000 0.8819 0.4714
vn 0.0000 0.9569 0.2903
vn 0.0000 0.9952 0.0980
vn 0.0000 0.9952 -0.0980
vn 0.0000 0.9569 -0.2903
vn 0.0000 0.8819 -0.4714
vn 0.0000 0.7730 -0.6344
vn 0.0000 0.6344 -0.7730
vn 0.0000 0.4714 -0.8819
vn -1.0000 0.0000 0.0000
vn 0.0000 0.2903 -0.9569
vn 0.0000 0.0980 -0.9952
vn 1.0000 -0.0000 0.0000
usemtl None
s off
f 133/186/133 135/187/133 136/188/133 134/189/133
f 135/187/134 137/190/134 138/191/134 136/188/134
f 137/190/135 139/192/135 140/193/135 138/191/135
f 139/192/136 141/194/136 142/195/136 140/193/136
f 141/194/137 143/196/137 144/197/137 142/195/137
f 143/196/138 145/198/138 146/199/138 144/197/138
f 145/198/139 147/200/139 148/201/139 146/199/139
f 147/200/140 149/202/140 150/203/140 148/201/140
f 149/202/141 151/204/141 152/205/141 150/203/141
f 151/204/142 153/206/142 154/207/142 152/205/142
f 153/206/143 155/208/143 156/209/143 154/207/143
f 155/208/144 157/210/144 158/211/144 156/209/144
f 157/210/145 159/212/145 160/213/145 158/211/145
f 159/212/146 161/214/146 162/215/146 160/213/146
f 161/214/147 163/216/147 164/217/147 162/215/147
f 163/216/148 165/218/148 166/219/148 164/217/148
f 165/218/149 167/220/149 168/221/149 166/219/149
f 167/220/150 169/222/150 170/223/150 168/221/150
f 169/222/151 171/224/151 172/225/151 170/223/151
f 171/224/152 173/226/152 174/227/152 172/225/152
f 173/226/153 175/228/153 176/229/153 174/227/153
f 175/228/154 177/230/154 178/231/154 176/229/154
f 177/230/155 179/232/155 180/233/155 178/231/155
f 179/232/156 181/234/156 182/235/156 180/233/156
f 181/234/157 183/236/157 184/237/157 182/235/157
f 183/236/158 185/238/158 186/239/158 184/237/158
f 185/238/159 187/240/159 188/241/159 186/239/159
f 187/240/160 189/242/160 190/243/160 188/241/160
f 189/242/161 191/244/161 192/245/161 190/243/161
f 191/244/162 193/246/162 194/247/162 192/245/162
f 136/248/163 138/249/163 140/250/163 142/251/163 144/252/163 146/253/163 148/254/163 150/255/163 152/256/163 154/257/163 156/258/163 158/259/163 160/260/163 162/261/163 164/262/163 166/263/163 168/264/163 170/265/163 172/266/163 174/267/163 176/268/163 178/269/163 180/270/163 182/271/163 184/272/163 186/273/163 188/274/163 190/275/163 192/276/163 194/277/163 196/278/163 134/279/163
f 193/246/164 195/280/164 196/281/164 194/247/164
f 195/280/165 133/282/165 134/283/165 196/281/165
f 133/284/166 195/285/166 193/286/166 191/287/166 189/288/166 187/289/166 185/290/166 183/291/166 181/292/166 179/293/166 177/294/166 175/295/166 173/296/166 171/297/166 169/298/166 167/299/166 165/300/166 163/301/166 161/302/166 159/303/166 157/304/166 155/305/166 153/306/166 151/307/166 149/308/166 147/309/166 145/310/166 143/311/166 141/312/166 139/313/166 137/314/166 135/315/166
